<?xml version="1.0" standalone="no"?>
<!DOCTYPE svg PUBLIC "-//W3C//DTD SVG 20010904//EN"
 "http://www.w3.org/TR/2001/REC-SVG-20010904/DTD/svg10.dtd">
<svg version="1.0" xmlns="http://www.w3.org/2000/svg"
 width="840.000000pt" height="744.000000pt" viewBox="0 0 840.000000 744.000000"
 preserveAspectRatio="xMidYMid meet">

<g transform="translate(0.000000,744.000000) scale(0.100000,-0.100000)"
fill="#000000" stroke="none">
<path d="M3836 7125 c-341 -37 -695 -128 -1011 -260 -190 -80 -509 -259 -664
-375 -42 -31 -97 -72 -122 -91 -160 -119 -451 -407 -588 -584 -39 -49 -109
-148 -157 -220 -48 -71 -95 -142 -105 -156 -50 -74 -195 -373 -249 -513 -112
-294 -171 -521 -217 -848 -25 -177 -25 -701 0 -873 23 -156 71 -401 97 -492
49 -176 158 -455 246 -629 117 -232 219 -391 407 -637 118 -155 450 -476 609
-589 25 -18 75 -54 110 -80 100 -73 315 -201 450 -266 175 -86 226 -107 373
-158 125 -44 131 -45 160 -29 35 18 70 67 93 127 14 36 17 100 20 370 2 181 1
328 -2 328 -4 0 -48 -6 -99 -14 -153 -24 -258 -28 -382 -16 -282 28 -471 124
-600 304 -24 34 -88 149 -143 255 -55 108 -117 214 -140 242 -24 27 -87 84
-140 128 -150 122 -182 163 -167 211 11 35 62 53 150 53 170 0 334 -82 431
-214 179 -248 395 -432 577 -493 84 -28 203 -19 457 34 l56 12 22 91 c29 124
73 207 154 293 l68 71 -123 6 c-216 9 -429 68 -624 172 -337 181 -569 439
-719 804 -77 188 -103 359 -104 681 0 205 14 379 39 491 31 137 144 388 227
506 l45 62 -12 138 c-22 262 3 609 51 703 24 47 46 60 97 60 133 0 556 -159
742 -277 l55 -35 86 11 c119 15 1666 15 1779 0 l82 -11 57 35 c100 61 212 113
392 180 187 70 320 104 364 93 64 -16 107 -203 127 -556 8 -148 9 -235 2 -278
-9 -60 -9 -66 13 -91 104 -124 216 -379 265 -601 18 -79 22 -141 26 -364 6
-294 -2 -395 -44 -560 -28 -112 -98 -293 -145 -375 -205 -359 -560 -638 -938
-737 -133 -35 -261 -54 -358 -54 l-84 0 64 -69 c67 -72 113 -149 150 -248 21
-56 22 -74 28 -678 6 -687 3 -658 73 -748 41 -53 76 -70 119 -56 363 121 718
298 973 488 50 36 101 74 115 83 14 8 37 27 52 41 15 14 65 57 110 95 112 95
348 339 421 436 17 24 57 76 88 117 286 381 523 914 609 1369 60 319 75 493
67 803 -16 641 -197 1239 -539 1775 -87 136 -107 165 -178 254 -25 31 -58 74
-73 95 -52 70 -299 324 -400 411 -233 200 -462 354 -722 486 -199 101 -273
131 -539 220 -152 51 -315 88 -571 127 -182 28 -641 35 -839 14z"/>
</g>
</svg>
